<?xml version="1.0" encoding="iso-8859-1"?>
<!-- Uploaded to: SVG Repo, www.svgrepo.com, Generator: SVG Repo Mixer Tools -->
<!DOCTYPE svg PUBLIC "-//W3C//DTD SVG 1.1//EN" "http://www.w3.org/Graphics/SVG/1.1/DTD/svg11.dtd">
<svg fill="#FFFFFF" height="800px" width="800px" version="1.1" id="Capa_1" xmlns="http://www.w3.org/2000/svg" xmlns:xlink="http://www.w3.org/1999/xlink" 
	 viewBox="0 0 297.485 297.485" xml:space="preserve">
<g>
	<path d="M130.493,44.504c0.813,4.064,4.382,6.99,8.527,6.99h19.22c4.145,0,7.714-2.926,8.527-6.99l6.822-34.103
		c0.511-2.555-0.15-5.204-1.802-7.219C170.135,1.168,167.667,0,165.062,0h-32.864c-2.605,0-5.073,1.168-6.725,3.183
		c-1.652,2.015-2.313,4.664-1.802,7.219L130.493,44.504z"/>
	<path d="M165.199,74.723c-0.227-4.521-3.958-8.071-8.485-8.071h-16.189c-4.527,0-8.259,3.55-8.485,8.071l-9.116,181.91
		c-0.348,6.949,1.71,13.806,5.827,19.415l13.191,17.969c1.608,2.19,4.167,3.479,6.884,3.468c2.717-0.012,5.265-1.322,6.855-3.526
		l12.964-17.974c4.019-5.573,6.022-12.347,5.678-19.21L165.199,74.723z"/>
	<path d="M66.903,3.054c-1.73-1.183-3.878-1.583-5.918-1.101L37.788,7.429L24.266,62.15l33.031,8.853
		c2.4,0.643,4.326,2.434,5.143,4.78c0.816,2.347,0.417,4.945-1.065,6.939l-33.917,45.605l81.787,159.314L70.075,8.169
		C69.784,6.094,68.633,4.237,66.903,3.054z"/>
	<path d="M12.634,123.124l30.113-40.491L13.28,74.735c-3.945-1.058-6.319-5.078-5.34-9.043l13.44-54.389L5.863,14.966
		C2.5,15.76,0.124,18.762,0.124,22.217v267.562c0,4.115,3.336,7.451,7.451,7.451h89.731L11.981,131.024
		C10.675,128.481,10.929,125.418,12.634,123.124z"/>
	<path d="M236.111,82.722c-1.482-1.994-1.882-4.593-1.066-6.939c0.816-2.347,2.742-4.138,5.143-4.78l33.031-8.853L259.697,7.429
		L236.5,1.952c-2.04-0.482-4.188-0.082-5.918,1.101c-1.73,1.183-2.882,3.04-3.172,5.115l-39.169,279.473l81.787-159.314
		L236.111,82.722z"/>
	<path d="M291.622,14.966l-15.517-3.663l13.44,54.389c0.979,3.965-1.395,7.985-5.34,9.043l-29.468,7.897l30.113,40.491
		c1.705,2.294,1.959,5.357,0.653,7.9L200.179,297.23h89.731c4.115,0,7.451-3.336,7.451-7.451V22.217
		C297.361,18.762,294.985,15.76,291.622,14.966z"/>
</g>
</svg>